<svg xmlns="http://www.w3.org/2000/svg" width="18.413" height="24.916" viewBox="0 0 18.413 24.916">
  <path id="Path_2215" data-name="Path 2215" d="M949.615,454.842c1.055-1.784,2.161-3.389,4.39-3.767a5.569,5.569,0,0,1-.335.724,7.232,7.232,0,0,0-.768,1.384,18.274,18.274,0,0,0-.5,4.167c.016,1.864-2.091,5.944-5.137,7.49-3.257,1.653-7.5.672-8.563-.59-1.764-2.091,3.861-9.586,6.12-12.464a18.946,18.946,0,0,1,.489,2.089,4.854,4.854,0,0,1-1.57,4.422,23.4,23.4,0,0,0-5.039,5.953l-.105.185a12.82,12.82,0,0,1-.935-1c-2.66-3.551-2.772-7.047-.206-10.719.638-.913,1.269-1.839,1.821-2.816a3.4,3.4,0,0,0,.131-3.378,1.409,1.409,0,0,1-.111-.35.453.453,0,0,1,.036-.174c1.365.11,1.917,1.518,2.13,5.429a6.622,6.622,0,0,0,1.349-5.5,13.257,13.257,0,0,0-2.69-5.126,10.542,10.542,0,0,1,7.685,4.589A12.848,12.848,0,0,1,949.615,454.842Z" transform="translate(-935.592 -440.796)" fill="#fff"/>
</svg>
